<?xml version="1.0" encoding="utf-8"?>
<!-- Generator: Adobe Illustrator 16.0.4, SVG Export Plug-In . SVG Version: 6.00 Build 0)  -->
<!DOCTYPE svg PUBLIC "-//W3C//DTD SVG 1.1//EN" "http://www.w3.org/Graphics/SVG/1.1/DTD/svg11.dtd">
<svg version="1.1" id="Layer_1" xmlns="http://www.w3.org/2000/svg" xmlns:xlink="http://www.w3.org/1999/xlink" x="0px" y="0px"
	 width="274.151px" height="272px" viewBox="55.5 58 274.151 272" enable-background="new 55.5 58 274.151 272"
	 xml:space="preserve">
<g>
	<path fill="#4BA8B8" d="M322.652,193.383c0-71.237-57.75-128.984-128.98-128.984c-71.239,0-128.99,57.747-128.99,128.984
		c0,71.233,57.751,128.982,128.99,128.982c2.097,0,4.182-0.054,6.258-0.15v0.15h122.723V199.647h-0.16
		C322.596,197.566,322.652,195.481,322.652,193.383"/>
	<rect x="153.92" y="152.477" fill="#FFFFFF" width="13.937" height="84.058"/>
	<path fill="#FFFFFF" d="M187.099,150.576c-2.413,0-4.44,0.841-6.12,2.524c-1.687,1.683-2.524,3.803-2.524,6.365
		c0,2.392,0.838,4.442,2.524,6.125c1.679,1.681,3.707,2.52,6.12,2.52c2.561,0,4.685-0.839,6.358-2.52
		c1.68-1.683,2.52-3.732,2.52-6.125c0-2.563-0.84-4.684-2.52-6.365C191.784,151.417,189.66,150.576,187.099,150.576"/>
	<rect x="180.133" y="176.492" fill="#FFFFFF" width="13.922" height="60.043"/>
	<polygon fill="#FFFFFF" points="225.238,151.832 211.309,151.832 211.309,176.495 204.108,176.495 204.108,190.42 211.309,190.42 
		211.309,236.536 225.238,236.536 225.238,190.42 240.877,190.42 240.877,176.495 225.238,176.495 	"/>
	<path fill="#FFFFFF" d="M114.194,170.458c-9.128,0-16.967,3.285-23.293,9.767c-6.329,6.477-9.536,14.237-9.536,23.064
		c0,9.428,3.169,17.431,9.421,23.782c6.253,6.356,14.129,9.578,23.408,9.578c12.096,0,21.883-4.732,29.094-14.055l0.069-0.092
		l-9.795-7.404l-0.069,0.084c-5.001,6.155-11.293,9.275-18.692,9.275c-4.801,0-9.303-1.486-13.375-4.41
		c-4.046-2.901-6.684-7.56-7.844-13.843h53.29v-0.111c0.102-10.484-3.095-19.137-9.497-25.717
		C130.969,173.795,123.167,170.458,114.194,170.458 M94.98,195.448c4.022-8.759,10.675-13.389,19.25-13.389
		c7.877,0,14.121,4.504,18.563,13.389H94.98z"/>
	<path fill="#FFFFFF" d="M308.524,206.094c0.102-10.483-3.092-19.137-9.497-25.717c-6.404-6.581-14.203-9.918-23.179-9.918
		c-9.126,0-16.964,3.285-23.295,9.766c-6.327,6.478-9.535,14.237-9.535,23.066c0,9.427,3.172,17.429,9.422,23.782
		c6.251,6.354,14.128,9.577,23.408,9.577c12.094,0,21.882-4.732,29.094-14.055l0.068-0.093l-9.709-7.339l-0.086-0.064l-0.071,0.083
		c-4.999,6.155-11.292,9.277-18.69,9.277c-4.803,0-9.303-1.486-13.377-4.411c-4.045-2.901-6.684-7.56-7.843-13.843h53.29V206.094
		L308.524,206.094z M256.636,195.448c4.024-8.759,10.677-13.389,19.249-13.389c7.879,0,14.125,4.504,18.562,13.389H256.636z"/>
</g>
</svg>
